<?xml version="1.0" standalone="no"?>
<!DOCTYPE svg PUBLIC "-//W3C//DTD SVG 20010904//EN"
 "http://www.w3.org/TR/2001/REC-SVG-20010904/DTD/svg10.dtd">
<svg version="1.0" xmlns="http://www.w3.org/2000/svg"
 width="800.000000pt" height="800.000000pt" viewBox="0 0 800.000000 800.000000"
 preserveAspectRatio="xMidYMid meet">
<metadata>
Created by potrace 1.14, written by Peter Selinger 2001-2017
</metadata>
<g transform="translate(0.000000,800.000000) scale(0.100000,-0.100000)"
fill="#000000" stroke="none">
<path d="M1190 7145 l0 -345 -345 0 -345 0 0 -2090 0 -2090 345 0 345 0 0
-355 0 -355 350 0 350 0 0 -350 0 -350 355 0 355 0 0 -345 0 -345 345 0 345 0
0 345 0 345 345 0 345 0 0 -345 0 -345 350 0 350 0 0 345 0 345 345 0 345 0 0
-345 0 -345 355 0 355 0 0 345 0 345 350 0 350 0 0 350 0 350 345 0 345 0 0
2790 0 2790 -3140 0 -3140 0 0 -345z m2100 -1745 l0 -700 -345 0 -345 0 0
-345 0 -345 -705 0 -705 0 0 690 0 690 350 0 350 0 0 355 0 355 700 0 700 0 0
-700z m3490 0 l0 -700 -350 0 -350 0 0 -345 0 -345 -700 0 -700 0 0 690 0 690
345 0 345 0 0 355 0 355 705 0 705 0 0 -700z m-2100 -2435 l0 -345 -695 0
-695 0 0 345 0 345 695 0 695 0 0 -345z m-1390 -1405 l0 -350 -345 0 -345 0 0
350 0 350 345 0 345 0 0 -350z m1390 0 l0 -350 -350 0 -350 0 0 350 0 350 350
0 350 0 0 -350z m1400 0 l0 -350 -355 0 -355 0 0 350 0 350 355 0 355 0 0
-350z"/>
</g>
</svg>
